<svg width="24" height="25" viewBox="0 0 24 25" fill="none" xmlns="http://www.w3.org/2000/svg">
<g clip-path="url(#clip0_34_82)">
<path d="M5 18.8721H19V11.741C19 7.76772 15.866 4.54651 12 4.54651C8.134 4.54651 5 7.76772 5 11.741V18.8721ZM12 2.5C16.97 2.5 21 6.63702 21 11.741V20.9186H3V11.741C3 6.63702 7.03 2.5 12 2.5ZM9.5 21.9419H14.5C14.5 22.6203 14.2366 23.271 13.7678 23.7507C13.2989 24.2305 12.663 24.5 12 24.5C11.337 24.5 10.7011 24.2305 10.2322 23.7507C9.76339 23.271 9.5 22.6203 9.5 21.9419Z" fill="white"/>
</g>
<defs>
<clipPath id="clip0_34_82">
<rect width="24" height="24" fill="white" transform="translate(0 0.5)"/>
</clipPath>
</defs>
</svg>
